{"title":"Pranked S01 E01-08 (PSP, iPod, Zune)","uid":5747599,"size":929139084,"categoryP":"video","categoryS":"handheld","magnet":"?xt=urn:btih:091ed1121f6c5671a5051da5e65e443bce625314&amp;dn=Pranked+S01+E01-08+%28PSP%2C+iPod%2C+Zune%29&amp;tr=udp%3A%2F%2Ftracker.openbittorrent.com%3A80&amp;tr=udp%3A%2F%2Fopen.demonii.com%3A1337&amp;tr=udp%3A%2F%2Ftracker.coppersurfer.tk%3A6969&amp;tr=udp%3A%2F%2Fexodus.desync.com%3A6969","seeders":0,"leechers":1,"uploader":"The_Day_Walker","files":-1,"time":1281284230,"description":"Source: Various DSR Releases.\n\nThis has Episodes 01 - 08 of Seasons 01. As far as I know that is all that has been aired and all that is available.\n\nEncoded for PSP, iPod, Zune.\n\nEnjoy and please help me seed! (^_^)\n\n              This show comes on MTV.\nShow Nfo - - - A weekly 30 minute show of the very best pranks pulled straight off the internet. The show taps into the era of technology democratizing the media process. These homemade pranks are engineered, executed and filmed by kids themselves. No producers; no professional editors, no camera men -- just the thin line of technology between the pranksters, their victims and the audience. \n\nVideo Specs: \nFormat                           : MPEG-4\nCodec ID                         : M4V \nFile size                        : 115 MiB\nDuration                         : 20mn 45s\nOverall bit rate                 : 773 Kbps\nMovie name                       : Pranked S01E01\nEncoded date                     : 2010\nWriting application              : Lavf52.33.0\n\nVideo\nID                               : 1\nFormat                           : AVC\nFormat/Info                      : Advanced Video Codec\nFormat profile                   : &lt;a class=&quot;__cf_email__&quot; href=&quot;/cdn-cgi/l/email-protection&quot; data-cfemail=&quot;4f0d2e3c2a2326212a0f037e617c&quot;&gt;[email&amp;#160;protected]&lt;/a&gt;&lt;script data-cfhash='f9e31' type=&quot;text/javascript&quot;&gt;\n/* &lt;![CDATA[ */!function(){try{var t=&quot;currentScript&quot;in document?document.currentScript:function(){for(var t=document.getElementsByTagName(&quot;script&quot;),e=t.length;e--;)if(t[e].getAttribute(&quot;data-cfhash&quot;))return t[e]}();if(t&amp;&amp;t.previousSibling){var e,r,n,i,c=t.previousSibling,a=c.getAttribute(&quot;data-cfemail&quot;);if(a){for(e=&quot;&quot;,r=parseInt(a.substr(0,2),16),n=2;a.length-n;n+=2)i=parseInt(a.substr(n,2),16)^r,e+=String.fromCharCode(i);e=document.createTextNode(e),c.parentNode.replaceChild(e,c)}t.parentNode.removeChild(t);}}catch(u){}}()/* ]]&gt; */&lt;/script&gt;\nFormat settings, CABAC           : No\nFormat settings, ReFrames        : 1 frame\nCodec ID                         : avc1\nCodec ID/Info                    : Advanced Video Coding\nDuration                         : 20mn 45s\nBit rate mode                    : Variable\nBit rate                         : 640 Kbps\nWidth                            : 320 pixels\nHeight                           : 240 pixels\nDisplay aspect ratio             : 4:3\nFrame rate mode                  : Constant\nFrame rate                       : 29.970 fps\nColor space                      : YUV\nChroma subsampling               : 4:2:0\nBit depth                        : 8 bits\nScan type                        : Progressive\nBits/(Pixel*Frame)               : 0.278\nStream size                      : 95.0 MiB (83%)\n\nAudio\nID                               : 2\nFormat                           : AAC\nFormat/Info                      : Advanced Audio Codec\nFormat version                   : Version 4\nFormat profile                   : LC\nFormat settings, SBR             : No\nCodec ID                         : 40\nDuration                         : 20mn 45s\nBit rate mode                    : Variable\nBit rate                         : 128 Kbps\nChannel(s)                       : 2 channels\nChannel positions                : Front: L R\nSampling rate                    : 48.0 KHz\nStream size                      : 19.0 MiB (17%)\n\n","torrent":{"xt":"urn:btih:091ed1121f6c5671a5051da5e65e443bce625314","amp;dn":"Pranked+S01+E01-08+%28PSP%2C+iPod%2C+Zune%29","amp;tr":["udp%3A%2F%2Ftracker.openbittorrent.com%3A80","udp%3A%2F%2Fopen.demonii.com%3A1337","udp%3A%2F%2Ftracker.coppersurfer.tk%3A6969","udp%3A%2F%2Fexodus.desync.com%3A6969"],"infoHash":"091ed1121f6c5671a5051da5e65e443bce625314","infoHashBuffer":{"type":"Buffer","data":[9,30,209,18,31,108,86,113,165,5,29,165,230,94,68,59,206,98,83,20]},"announce":[],"urlList":[]}}